<svg width="595" height="297" viewBox="0 0 595 297" fill="none" xmlns="http://www.w3.org/2000/svg">
<path d="M35.6 292V127.2H-4.87864e-05V88H35.6V58C35.6 39.8666 40.6666 25.7333 50.8 15.6C61.2 5.19999 75.4666 -7.62939e-06 93.6 -7.62939e-06H148V39.2H102C95.8666 39.2 90.9333 41.0667 87.2 44.8C83.4666 48.5333 81.6 53.6 81.6 60V88H139.6V127.2H81.6V292H35.6ZM270.531 292C247.598 292 227.465 287.733 210.131 279.2C193.065 270.4 179.731 258.4 170.131 243.2C160.531 227.733 155.731 210 155.731 190C155.731 168.933 159.998 150.4 168.531 134.4C177.065 118.4 188.798 105.867 203.731 96.8C218.665 87.7333 235.865 83.2 255.331 83.2C277.198 83.2 295.198 87.8667 309.331 97.2C323.465 106.533 333.865 119.067 340.531 134.8C347.465 150.533 350.931 168.133 350.931 187.6C350.931 190.267 350.798 193.333 350.531 196.8C350.265 200.267 349.865 202.933 349.331 204.8H204.531C206.131 215.467 209.998 224.4 216.131 231.6C222.265 238.533 229.998 243.867 239.331 247.6C248.665 251.067 259.065 252.8 270.531 252.8H325.331V292H270.531ZM204.131 173.6H304.931C304.665 168.533 303.865 163.467 302.531 158.4C301.465 153.333 299.598 148.533 296.931 144C294.531 139.467 291.331 135.6 287.331 132.4C283.598 128.933 279.065 126.267 273.731 124.4C268.398 122.267 262.265 121.2 255.331 121.2C247.331 121.2 240.265 122.8 234.131 126C227.998 128.933 222.798 132.933 218.531 138C214.265 142.8 210.931 148.4 208.531 154.8C206.398 160.933 204.931 167.2 204.131 173.6ZM488.694 296.8C472.427 296.8 457.627 294.267 444.294 289.2C431.227 283.867 420.027 276.267 410.694 266.4C401.627 256.533 394.56 244.933 389.494 231.6C384.694 218 382.294 203.067 382.294 186.8C382.294 166 386.427 147.867 394.694 132.4C403.227 116.933 414.96 104.933 429.894 96.4C444.827 87.6 461.894 83.2 481.094 83.2C490.694 83.2 499.76 84.6667 508.294 87.6C516.827 90.5333 524.56 94.6667 531.494 100C538.427 105.333 544.027 111.6 548.294 118.8H548.694V-7.62939e-06H594.694V187.6C594.694 210 590.16 229.467 581.094 246C572.294 262.267 559.894 274.8 543.894 283.6C528.16 292.4 509.76 296.8 488.694 296.8ZM488.694 257.6C500.427 257.6 510.694 254.8 519.494 249.2C528.56 243.333 535.627 235.333 540.694 225.2C545.76 215.067 548.294 203.333 548.294 190C548.294 176.667 545.76 164.933 540.694 154.8C535.627 144.667 528.56 136.8 519.494 131.2C510.694 125.333 500.294 122.4 488.294 122.4C476.827 122.4 466.56 125.333 457.494 131.2C448.427 137.067 441.36 145.067 436.294 155.2C431.227 165.333 428.694 176.933 428.694 190C428.694 203.333 431.227 215.067 436.294 225.2C441.36 235.333 448.427 243.333 457.494 249.2C466.827 254.8 477.227 257.6 488.694 257.6Z" fill="black"/>
</svg>
